<svg width="141" height="49" viewBox="0 0 141 49" fill="none" xmlns="http://www.w3.org/2000/svg">
<path d="M98.8125 7.71276L98.8198 39.8093C98.8017 40.3284 98.6528 40.8874 98.3915 41.3339C97.9885 42.0164 92.7649 47.2182 91.9772 47.8026C91.7449 47.9732 91.5562 48.1947 91.2476 48.2455L72.4369 48.1838C70.2117 45.8097 67.5944 43.7043 65.6379 41.1234L65.587 22.4288L65.8157 21.4887L71.5512 15.51L72.7382 14.7441C76.3609 15.0926 80.9565 14.2468 84.4595 14.7259C85.9042 14.922 86.6702 17.2198 88.2637 16.795C89.0297 16.5918 89.5415 16.0255 89.6359 15.2269C90.1078 11.1649 89.0841 5.97398 89.6504 1.97734C89.7702 1.1388 90.2457 0.572521 90.9899 0.195C93.7087 0.2676 97.0447 -0.200671 99.6983 0.10425C100.595 0.20952 101.06 0.663272 101.165 1.56714C101.252 2.31856 101.285 6.23534 101.121 6.79799C100.878 7.61838 99.5458 7.84344 98.8162 7.71639L98.8125 7.71276ZM77.2648 22.3853C76.6295 22.5268 74.7056 24.5016 74.5967 25.184C74.8436 29.01 74.2301 33.3152 74.575 37.0796C74.7056 38.5062 76.2629 39.6133 77.4281 40.2776C80.3176 40.0925 83.5701 40.5571 86.4161 40.2957C87.4506 40.2014 89.4616 38.4336 89.6177 37.4462C89.8573 35.9434 89.821 30.4439 89.6322 28.8721C89.4834 27.6343 88.0604 26.5053 87.1892 25.6523C86.7609 25.2312 83.9368 22.5777 83.7153 22.4905C83.1345 22.2546 77.9872 22.2219 77.2612 22.3853H77.2648Z" fill="#EB5D1C"/>
<path d="M19.5658 37.6313C20.4079 36.8255 21.9616 35.5586 22.615 34.7309C22.9199 34.3462 23.1667 33.8706 23.2067 33.3697C22.8981 32.0375 23.5987 22.7301 23.2067 22.3453C23.1196 22.2582 21.4497 22.6321 21.0976 21.4269C20.9379 20.8824 20.996 15.8222 21.2029 15.3685C21.4606 14.8094 21.9797 14.7768 22.5133 14.7259C24.4227 14.5517 28.8659 14.5118 30.7317 14.7332C31.5339 14.8276 31.8134 15.1652 32.1438 15.8585L32.2018 46.6374C32.2127 47.6175 31.6755 48.1801 30.7317 48.289C29.7879 48.3979 25.6823 48.4306 24.9128 48.2382C23.5152 47.8861 24.0416 46.4813 23.4027 45.65C21.5332 43.2143 19.5258 47.897 17.9867 48.2455L6.99867 48.1801C6.54128 48.0277 1.17249 42.746 0.635252 42.0491C0.366631 41.7006 0.12342 41.3557 0 40.9274L0.0399301 15.7024C0.301291 15.0744 0.744153 14.8094 1.41208 14.7332C2.72614 14.5807 6.16376 14.5807 7.47783 14.7332C8.14212 14.8094 8.58861 15.0744 8.84997 15.7024L9.02421 38.3501C9.17304 38.8292 10.9191 40.5244 11.42 40.6406C12.0299 40.7785 15.6345 40.7967 16.2588 40.6769C16.7598 40.5825 19.0322 38.1395 19.5621 37.6313H19.5658Z" fill="#EB5D1C"/>
<path d="M111.775 15.5826C112.127 15.2269 113.057 14.7949 113.561 14.7332C118.908 15.216 125.355 14.1052 130.568 14.7332C131.788 14.8784 132.357 15.6988 132.967 16.6281C135.726 20.8498 137.882 25.7648 140.659 30.0156C141.741 32.081 139.908 34.3171 138.899 36.1285C137.193 39.1922 134.572 44.3468 132.579 46.9822C131.965 47.7917 131.428 48.1947 130.376 48.2963C125.068 48.8045 118.952 47.8934 113.558 48.2927C112.603 48.191 111.891 47.5122 111.351 46.7898C108.356 42.8041 106.225 36.967 103.267 32.8179C102.816 31.7217 102.878 31.1518 103.336 30.0809L111.772 15.5826H111.775ZM121.997 21.4124C120.887 22.1566 113.51 25.91 113.307 26.5743C113.253 26.7522 113.278 26.93 113.26 27.1115C113.158 28.1098 113.126 36.1757 113.369 36.5822C115.525 37.8636 117.768 39.352 119.976 40.5172C121.642 41.3956 121.558 41.7841 123.362 40.9056C125.849 39.6968 128.31 37.9108 130.753 36.5786V26.44L121.994 21.4124H121.997Z" fill="#EB5D1C"/>
<path d="M47.0377 22.3417L46.9542 46.9314C46.7981 47.603 46.2609 48.162 45.5603 48.2709C44.6709 48.4125 40.1733 48.4233 39.3602 48.2418C38.7068 48.0966 38.0498 47.3126 38.0461 46.6301L38.0933 16.0436C38.3002 15.4156 38.8556 14.853 39.5272 14.7441L48.5986 14.8348C48.8999 15.1107 49.2992 15.3757 49.379 15.8113C49.5061 16.4829 49.4879 20.5739 49.3427 21.2273C49.1068 22.2836 47.9779 22.4506 47.0377 22.3417Z" fill="#EB5D1C"/>
<path d="M54.1997 38.7603L59.7391 38.8256C59.9787 38.9418 62.3854 42.9965 62.4398 43.3595C62.5451 44.0492 60.2255 47.3634 59.7391 48.191C59.3906 48.3616 55.1798 48.3725 54.5482 48.2999C54.1779 48.2564 54.138 48.2818 53.8984 47.9732C53.5173 47.4868 51.8983 44.6917 51.6841 44.1363C51.6043 43.9294 51.499 43.7406 51.5208 43.5083C51.5208 43.0872 53.9384 38.8474 54.1997 38.7603Z" fill="#EB5D1C"/>
</svg>
