<svg width="257" height="88" viewBox="0 0 257 88" fill="none" xmlns="http://www.w3.org/2000/svg">
<path d="M179.456 14.0073L179.469 72.2985C179.436 73.2413 179.165 74.2565 178.691 75.0674C177.959 76.3068 168.472 85.7539 167.042 86.8153C166.62 87.1252 166.277 87.5273 165.717 87.6196L131.554 87.5075C127.513 83.196 122.76 79.3723 119.206 74.685L119.114 40.7335L119.529 39.026L129.946 28.1681L132.101 26.777C138.681 27.4099 147.027 25.8739 153.389 26.7441C156.012 27.1001 157.403 31.2732 160.298 30.5018C161.689 30.1326 162.618 29.1042 162.79 27.6539C163.647 20.2768 161.787 10.8495 162.816 3.59108C163.033 2.0682 163.897 1.03977 165.249 0.354144C170.186 0.485994 176.245 -0.364443 181.064 0.18933C182.692 0.380514 183.536 1.20458 183.727 2.84612C183.886 4.21078 183.945 11.3241 183.648 12.346C183.207 13.8359 180.787 14.2446 179.462 14.0139L179.456 14.0073ZM140.322 40.6543C139.168 40.9114 135.674 44.4978 135.477 45.7372C135.925 52.6857 134.811 60.5045 135.437 67.3409C135.674 69.9318 138.503 71.9425 140.619 73.149C145.867 72.8128 151.773 73.6566 156.942 73.1819C158.821 73.0105 162.473 69.8 162.757 68.0068C163.192 65.2775 163.126 55.2898 162.783 52.4352C162.513 50.1872 159.928 48.1369 158.346 46.5876C157.568 45.8229 152.439 41.0037 152.037 40.8455C150.982 40.417 141.634 40.3577 140.316 40.6543H140.322Z" fill="#353655"/>
<path d="M35.5338 68.343C37.0633 66.8795 39.8849 64.5787 41.0715 63.0756C41.6253 62.3768 42.0736 61.5132 42.1461 60.6034C41.5857 58.1839 42.8581 41.2806 42.1461 40.5818C41.9879 40.4236 38.9553 41.1026 38.3158 38.9139C38.0258 37.925 38.1313 28.735 38.507 27.911C38.9751 26.8957 39.9178 26.8364 40.8869 26.7441C44.3546 26.4277 52.4239 26.3551 55.8124 26.7573C57.2694 26.9287 57.777 27.5418 58.3769 28.801L58.4824 84.6991C58.5022 86.4791 57.5265 87.5009 55.8124 87.6987C54.0984 87.8965 46.6422 87.9558 45.2446 87.6064C42.7065 86.967 43.6624 84.4156 42.5021 82.9059C39.107 78.4824 35.4613 86.9867 32.666 87.6196L12.7104 87.5009C11.8798 87.2241 2.12939 77.6319 1.15369 76.3661C0.665847 75.7333 0.224146 75.107 0 74.3291L0.0725179 28.5175C0.547181 27.377 1.35147 26.8957 2.5645 26.7573C4.951 26.4804 11.1941 26.4804 13.5806 26.7573C14.7871 26.8957 15.598 27.377 16.0726 28.5175L16.3891 69.6483C16.6594 70.5186 19.8304 73.5973 20.7401 73.8082C21.8477 74.0588 28.3941 74.0917 29.528 73.8742C30.4378 73.7028 34.5647 69.266 35.5272 68.343H35.5338Z" fill="#353655"/>
<path d="M202.997 28.2999C203.637 27.6539 205.325 26.8693 206.241 26.7573C215.952 27.6341 227.66 25.6168 237.127 26.7573C239.342 27.021 240.377 28.5109 241.485 30.1986C246.495 37.8657 250.411 46.792 255.454 54.5119C257.419 58.263 254.09 62.324 252.257 65.6137C249.158 71.1778 244.399 80.5392 240.779 85.3254C239.665 86.7955 238.69 87.5273 236.778 87.7119C227.139 88.6349 216.031 86.9801 206.234 87.7053C204.501 87.5207 203.208 86.2879 202.226 84.976C196.787 77.7374 192.917 67.1366 187.545 59.6013C186.727 57.6104 186.839 56.5753 187.67 54.6305L202.991 28.2999H202.997ZM221.562 38.8875C219.545 40.239 206.149 47.0557 205.78 48.2621C205.681 48.5852 205.727 48.9082 205.694 49.2378C205.509 51.0508 205.45 65.6994 205.892 66.4378C209.808 68.7649 213.882 71.4679 217.89 73.5841C220.916 75.1795 220.764 75.8849 224.041 74.2895C228.557 72.0942 233.027 68.8506 237.463 66.4312V48.0182L221.555 38.8875H221.562Z" fill="#353655"/>
<path d="M85.4261 40.5752L85.2745 85.2331C84.991 86.4527 84.0153 87.468 82.7429 87.6658C81.1278 87.9229 72.9596 87.9426 71.4829 87.613C70.2962 87.3493 69.103 85.9253 69.0964 84.6859L69.1821 29.1372C69.5579 27.9967 70.5665 26.9748 71.7861 26.7771L88.2609 26.9419C88.8081 27.4429 89.5332 27.9242 89.6783 28.7153C89.909 29.9349 89.8761 37.3647 89.6124 38.5513C89.1838 40.4698 87.1336 40.773 85.4261 40.5752Z" fill="#353655"/>
<path d="M98.4332 70.3933L108.493 70.512C108.929 70.7229 113.299 78.0868 113.398 78.746C113.589 79.9986 109.377 86.0176 108.493 87.5207C107.861 87.8306 100.213 87.8503 99.0661 87.7185C98.3937 87.6394 98.3212 87.6855 97.886 87.1252C97.1938 86.2418 94.2535 81.1655 93.8646 80.1568C93.7196 79.7811 93.5284 79.4383 93.5679 79.0163C93.5679 78.2516 97.9586 70.5515 98.4332 70.3933Z" fill="#353655"/>
</svg>
