<svg width="169" height="69" viewBox="0 0 169 69" fill="none" xmlns="http://www.w3.org/2000/svg">
<path d="M83.0867 48.3689L79.2268 66.7189C79.1468 67.1989 79.0067 67.5189 78.8067 67.6789C78.6067 67.8389 78.2468 67.9189 77.7168 67.9189H75.7268C74.8768 67.9189 74.4567 67.639 74.4567 67.0789C74.4567 66.8389 74.5167 66.4389 74.6367 65.8689L78.6168 47.0889C78.6968 46.6489 78.7668 46.2189 78.8268 45.7889C78.8868 45.3689 78.9167 44.9689 78.9167 44.6089C78.9167 41.3089 77.1667 39.6589 73.6667 39.6589C71.4967 39.6589 69.5568 40.4789 67.8668 42.1089C66.1768 43.7389 65.0668 45.8589 64.5468 48.4789L60.6867 66.7089C60.6067 67.1889 60.4668 67.5089 60.2668 67.6689C60.0668 67.8289 59.7068 67.909 59.1768 67.909H57.1867C56.3467 67.909 55.9167 67.6289 55.9167 67.0689C55.9167 66.8289 55.9767 66.4489 56.0967 65.9189L62.1367 37.4789C62.2167 36.9989 62.3668 36.6789 62.5868 36.5189C62.8067 36.3589 63.1568 36.2789 63.6468 36.2789H65.4567C66.3367 36.2789 66.7868 36.5589 66.7868 37.1189C66.7868 37.1989 66.7768 37.2989 66.7568 37.4189C66.7368 37.5389 66.7067 37.6789 66.6667 37.8389L66.2467 39.5289C67.4967 38.2389 68.8468 37.2289 70.3268 36.5089C71.7968 35.7789 73.3167 35.4189 74.8867 35.4189C76.9367 35.4189 78.6867 35.8789 80.1367 36.8089C81.5868 37.7389 82.5868 38.9989 83.1568 40.6089C85.9768 37.1489 89.3967 35.4189 93.4167 35.4189C96.1567 35.4189 98.3067 36.2089 99.8767 37.7689C101.447 39.3389 102.227 41.4289 102.227 44.0489C102.227 45.0589 102.107 46.0989 101.867 47.1889L97.7568 66.6889C97.6768 67.1689 97.5367 67.4889 97.3367 67.6489C97.1367 67.8089 96.7767 67.8889 96.2467 67.8889H94.2568C93.4168 67.8889 92.9867 67.609 92.9867 67.049C92.9867 66.809 93.0467 66.4289 93.1667 65.8989L97.1568 47.0589C97.3168 46.2989 97.3968 45.5289 97.3968 44.7589C97.3968 43.1089 96.9567 41.8389 96.0667 40.9589C95.1768 40.0789 93.8967 39.6289 92.2067 39.6289C89.9967 39.6289 88.0568 40.4189 86.4068 41.9889C84.7568 43.5589 83.6467 45.6689 83.0867 48.3289V48.3689Z" fill="#0084AE"/>
<path d="M120.757 53.559H112.127L111.887 54.769C111.607 56.179 111.467 57.329 111.467 58.209C111.467 62.519 113.557 64.669 117.747 64.669C121.567 64.669 123.987 63.359 124.987 60.739C125.147 60.299 125.327 60.019 125.527 59.899C125.727 59.779 126.107 59.719 126.677 59.719H128.607C129.447 59.719 129.877 59.979 129.877 60.499C129.877 61.469 129.557 62.459 128.907 63.489C128.267 64.509 127.397 65.429 126.307 66.239C124.057 67.929 121.197 68.769 117.737 68.769C114.277 68.769 111.487 67.889 109.617 66.109C107.747 64.339 106.807 61.759 106.807 58.379C106.807 57.819 106.847 57.199 106.927 56.539C107.007 55.869 107.147 54.939 107.347 53.729L107.947 50.529C109.837 40.469 114.827 35.439 122.917 35.439C126.177 35.439 128.707 36.149 130.497 37.579C132.287 39.009 133.187 41.009 133.187 43.589C133.187 46.809 132.117 49.279 129.987 50.989C127.857 52.699 124.777 53.559 120.747 53.559H120.757ZM122.627 39.189C117.477 39.189 114.237 42.669 112.907 49.629H121.537C123.787 49.629 125.537 49.109 126.787 48.059C128.037 47.009 128.657 45.549 128.657 43.649C128.657 42.199 128.137 41.089 127.087 40.329C126.037 39.569 124.547 39.179 122.617 39.179L122.627 39.189Z" fill="#0084AE"/>
<path d="M168.207 26.989L162.287 54.999C160.357 64.179 155.467 68.769 147.617 68.769C144.077 68.769 141.337 67.849 139.407 65.989C137.477 64.139 136.507 61.539 136.507 58.199C136.507 56.829 136.647 55.499 136.927 54.209L137.957 49.199C139.887 40.019 144.637 35.429 152.207 35.429C156.637 35.429 159.487 36.819 160.777 39.589L163.617 26.129C163.697 25.649 163.847 25.329 164.067 25.169C164.287 25.009 164.637 24.929 165.127 24.929H167.117C167.967 24.929 168.387 25.209 168.387 25.769C168.387 26.089 168.327 26.499 168.207 26.979V26.989ZM142.677 49.569L141.587 54.639C141.427 55.239 141.317 55.859 141.257 56.479C141.197 57.099 141.167 57.699 141.167 58.259C141.167 62.529 143.397 64.659 147.867 64.659C150.527 64.659 152.617 63.869 154.147 62.269C155.677 60.679 156.827 58.139 157.587 54.629L158.797 48.949C159.037 47.819 159.157 46.779 159.157 45.809C159.157 41.619 156.827 39.529 152.157 39.529C149.657 39.529 147.637 40.349 146.087 41.979C144.537 43.609 143.397 46.139 142.677 49.559V49.569Z" fill="#0084AE"/>
<path d="M18.5667 43.1789C9.99667 38.1689 7.10667 27.1489 12.1267 18.5789C17.1367 10.0089 28.1567 7.11889 36.7267 12.1289C39.7167 13.8789 41.9867 16.3589 43.4867 19.2089H53.9267C51.9167 12.9489 47.7167 7.36889 41.5967 3.78889C28.4267 -3.92111 11.4867 0.508891 3.78667 13.6889C-3.92333 26.8689 0.516673 43.8089 13.6867 51.5089C18.3667 54.2489 23.5167 55.4489 28.5667 55.2789C30.0267 55.2289 31.4867 55.0489 32.9167 54.7689L40.9467 39.7089C40.7767 39.8989 40.6267 40.0989 40.4567 40.2789C34.8167 45.9989 25.8167 47.4189 18.5667 43.1789Z" fill="#44C8F5"/>
<path d="M29.3766 22.4789L24.4366 32.0889H45.0166L26.1766 67.4189H38.4566L61.5566 22.4789H29.3766Z" fill="#0084AE"/>
</svg>
